<?xml version="1.0" encoding="UTF-8"?>
<svg width="284px" height="55px" viewBox="0 0 284 55" version="1.1" xmlns="http://www.w3.org/2000/svg" xmlns:xlink="http://www.w3.org/1999/xlink">
    <!-- Generator: Sketch 59.1 (86144) - https://sketch.com -->
    <title>velotoken-logo</title>
    <desc>Created with Sketch.</desc>
    <g id="AppDesign'" stroke="none" stroke-width="1" fill="none" fill-rule="evenodd">
        <g id="Desktop" transform="translate(-309.000000, -117.000000)" fill-rule="nonzero">
            <g id="velotoken-logo" transform="translate(309.000000, 117.000000)">
                <path d="M18.0624353,48.261875 L18.0624353,49.4375 C19.3674353,50.09 20.6893103,50.759375 21.9999353,51.4175 L18.0624353,53.369375 L18.0624353,54.573125 L24.3736853,51.411875 L18.0624353,48.261875 Z M26.0007987,48.261875 L26.0007987,49.4375 C27.3057987,50.09 28.6276737,50.759375 29.9382987,51.4175 L26.0007987,53.369375 L26.0007987,54.573125 L32.3120487,51.411875 L26.0007987,48.261875 Z M44.0600256,54.5 L44.0600256,50.585 L47.2887756,50.585 L47.2887756,49.51625 L44.0600256,49.51625 L44.0600256,46.844375 L47.6319006,46.844375 L47.6319006,45.77 L42.7325256,45.77 L42.7325256,54.5 L44.0600256,54.5 Z M51.430264,52.6325 L54.265264,52.6325 L54.844639,54.5 L56.245264,54.5 L53.539639,45.77 L52.251514,45.77 L49.568389,54.5 L50.862139,54.5 L51.430264,52.6325 Z M52.724014,48.475625 L52.842139,48.00875 L52.971514,48.475625 L53.950264,51.558125 L51.762139,51.558125 L52.724014,48.475625 Z M60.4486274,50.88875 L62.7042524,54.5 L64.2736274,54.5 L61.7705024,50.455625 C62.1586274,50.230625 62.4511274,49.994375 62.6705024,49.746875 C63.1430024,49.20125 63.4186274,48.475625 63.4186274,47.789375 C63.4186274,47.406875 63.3173774,47.058125 63.1148774,46.7375 C62.9123774,46.41125 62.6255024,46.169375 62.2542524,46.011875 C61.8830024,45.854375 61.3205024,45.77 60.5667524,45.77 L58.1817524,45.77 L58.1817524,54.5 L59.5092524,54.5 L59.5092524,50.88875 L60.4486274,50.88875 Z M59.5092524,46.844375 L60.2292524,46.844375 C60.9661274,46.844375 61.4611274,46.9625 61.7367524,47.181875 C62.0011274,47.395625 62.1361274,47.676875 62.1361274,48.0425 C62.1361274,48.250625 62.0911274,48.453125 62.0123774,48.6725 C61.9280024,48.88625 61.8042524,49.083125 61.6411274,49.26875 C61.4836274,49.454375 61.2417524,49.62875 60.9267524,49.80875 L59.5092524,49.80875 L59.5092524,46.844375 Z M68.0776158,52.80125 L69.3432408,52.80125 L70.6876158,49.004375 L70.7101158,48.92 L70.7101158,54.5 L71.9532408,54.5 L71.9532408,45.77 L70.6819908,45.77 L69.5447508,48.99542 C69.2914908,49.7165 69.0394908,50.4365 68.7919908,51.1475 L66.9076158,45.77 L65.6082408,45.77 L65.6082408,54.5 L66.7219908,54.5 L66.7219908,49.004375 L68.0776158,52.80125 Z M79.2503542,54.5 L79.2503542,53.43125 L77.3772292,53.43125 L77.3772292,46.844375 L79.2503542,46.844375 L79.2503542,45.77 L74.1822292,45.77 L74.1822292,46.844375 L76.0497292,46.844375 L76.0497292,53.43125 L74.1822292,53.43125 L74.1822292,54.5 L79.2503542,54.5 Z M83.1049677,54.5 L83.1049677,48.8075 C83.1049677,48.700625 83.1049677,48.576875 83.0993427,48.464375 L83.2905927,48.869375 L86.2493427,54.5 L87.4418427,54.5 L87.4418427,45.77 L86.2043427,45.77 L86.2043427,51.546875 L86.2099677,51.8225 L86.2099677,51.8225 L86.0918427,51.5075 L83.0430927,45.77 L81.8674677,45.77 L81.8674677,54.5 L83.1049677,54.5 Z M95.3014561,50.0675 L93.1245811,50.0675 L93.1245811,51.13625 L93.9739561,51.13625 L93.9739561,53.673125 L93.8027462,53.6868513 C93.7457418,53.69 93.7039561,53.69 93.6364561,53.69 C92.7758311,53.69 92.1402061,53.324375 91.7408311,52.61 C91.3302061,51.8675 91.1277061,51.051875 91.1277061,50.14625 C91.1277061,49.49375 91.2458311,48.846875 91.4483311,48.284375 C91.8758311,47.22125 92.6239561,46.585625 93.4283311,46.585625 C93.9964561,46.585625 94.6208311,46.7825 95.2958311,47.17625 L95.2958311,45.899375 C94.5983311,45.64625 93.9908311,45.51125 93.4733311,45.51125 C92.7814561,45.51125 92.1458311,45.696875 91.5720811,46.07375 C90.9927061,46.445 90.5483311,46.990625 90.2333311,47.71625 C89.9183311,48.43625 89.7608311,49.240625 89.7608311,50.135 C89.7608311,51.04625 89.9239561,51.85625 90.2445811,52.581875 C90.8970811,54.033125 92.0783311,54.75875 93.5408311,54.75875 C94.0470811,54.75875 94.6433311,54.6575 95.3014561,54.46625 L95.3014561,50.0675 Z M105.851308,54.28625 C106.396933,54.483125 106.846933,54.606875 107.145058,54.66875 C107.443183,54.725 107.791933,54.75875 108.129433,54.75875 C109.215058,54.75875 110.008183,54.51125 110.508808,54.01625 C111.009433,53.52125 111.262558,52.930625 111.262558,52.244375 C111.262558,51.344375 110.778808,50.59625 109.805683,50.005625 L109.355683,49.74125 L108.826933,49.415 L108.399433,49.15625 C108.056308,48.970625 107.786308,48.7625 107.566933,48.5375 C107.364433,48.329375 107.263183,48.065 107.263183,47.75 C107.263183,47.429375 107.392558,47.159375 107.656933,46.934375 C107.926933,46.70375 108.286933,46.585625 108.731308,46.585625 C109.316308,46.585625 109.963183,46.72625 110.666308,46.99625 L110.666308,45.809375 C110.041933,45.618125 109.423183,45.516875 108.798808,45.516875 C107.848183,45.516875 107.111308,45.77 106.638808,46.20875 C106.183183,46.65875 105.941308,47.238125 105.941308,47.89625 C105.941308,48.8075 106.458808,49.578125 107.488183,50.185625 L108.050683,50.50625 C108.241933,50.613125 108.427558,50.725625 108.613183,50.8325 C109.096933,51.119375 109.490683,51.423125 109.670683,51.659375 C109.845058,51.90125 109.940683,52.154375 109.940683,52.424375 C109.940683,52.64375 109.873183,52.863125 109.743808,53.065625 C109.614433,53.2625 109.423183,53.42 109.170058,53.52125 C108.911308,53.63375 108.646933,53.684375 108.354433,53.684375 C107.651308,53.684375 106.824433,53.45375 105.851308,52.9925 L105.851308,54.28625 Z M117.074671,54.5 L117.074671,50.48375 L119.684671,45.77 L118.300921,45.77 L116.472796,49.038125 L116.472796,49.038125 L114.639046,45.77 L113.137171,45.77 L115.747171,50.478125 L115.747171,54.5 L117.074671,54.5 Z M122.796785,54.5 L122.796785,48.8075 C122.796785,48.700625 122.796785,48.576875 122.79116,48.464375 L122.98241,48.869375 L125.94116,54.5 L127.13366,54.5 L127.13366,45.77 L125.89616,45.77 L125.89616,51.546875 L125.901785,51.8225 L125.901785,51.8225 L125.78366,51.5075 L122.73491,45.77 L121.559285,45.77 L121.559285,54.5 L122.796785,54.5 Z M132.945773,54.5 L132.945773,46.92875 L135.505148,46.92875 L135.505148,45.77 L129.070148,45.77 L129.070148,46.92875 L131.618273,46.92875 L131.618273,54.5 L132.945773,54.5 Z M138.763512,54.5 L138.763512,50.500625 L141.694137,50.500625 L141.694137,54.5 L143.010387,54.5 L143.010387,45.77 L141.694137,45.77 L141.694137,49.431875 L138.763512,49.431875 L138.763512,45.77 L137.436012,45.77 L137.436012,54.5 L138.763512,54.5 Z M147.12375,53.34125 L147.12375,50.585 L150.18375,50.585 L150.18375,49.51625 L147.12375,49.51625 L147.12375,46.844375 L150.526875,46.844375 L150.526875,45.77 L145.79625,45.77 L145.79625,54.5 L150.61125,54.5 L150.61125,53.34125 L147.12375,53.34125 Z M156.760863,54.5 L156.760863,46.92875 L159.320238,46.92875 L159.320238,45.77 L152.885238,45.77 L152.885238,46.92875 L155.433363,46.92875 L155.433363,54.5 L156.760863,54.5 Z M166.572352,54.5 L166.572352,53.43125 L164.699227,53.43125 L164.699227,46.844375 L166.572352,46.844375 L166.572352,45.77 L161.504227,45.77 L161.504227,46.844375 L163.371727,46.844375 L163.371727,53.43125 L161.504227,53.43125 L161.504227,54.5 L166.572352,54.5 Z M174.68509,53.099375 C174.004465,53.493125 173.38009,53.69 172.81759,53.69 C172.41259,53.69 172.04134,53.549375 171.698215,53.279375 C171.35509,52.998125 171.068215,52.57625 170.84884,52.008125 C170.62384,51.42875 170.51134,50.81 170.51134,50.135 C170.51134,49.47125 170.618215,48.858125 170.83759,48.284375 C171.259465,47.170625 171.990715,46.585625 172.81759,46.585625 C173.385715,46.585625 174.01009,46.7825 174.68509,47.17625 L174.68509,45.899375 C173.98759,45.64625 173.38009,45.51125 172.86259,45.51125 C172.16509,45.51125 171.529465,45.696875 170.955715,46.07375 C170.37634,46.445 169.931965,46.990625 169.616965,47.71625 C169.301965,48.43625 169.144465,49.240625 169.144465,50.135 C169.144465,51.035 169.301965,51.845 169.62259,52.570625 C169.943215,53.29625 170.38759,53.841875 170.966965,54.2075 C171.540715,54.57875 172.17634,54.75875 172.86259,54.75875 C173.38009,54.75875 173.98759,54.62375 174.68509,54.370625 L174.68509,53.099375 Z M188.030567,51.8 L187.918067,52.266875 L187.788692,51.794375 L185.915567,45.77 L184.520567,45.77 L187.220567,54.5 L188.508692,54.5 L191.197442,45.77 L189.903692,45.77 L188.030567,51.8 Z M194.753931,53.34125 L194.753931,50.585 L197.813931,50.585 L197.813931,49.51625 L194.753931,49.51625 L194.753931,46.844375 L198.157056,46.844375 L198.157056,45.77 L193.426431,45.77 L193.426431,54.5 L198.241431,54.5 L198.241431,53.34125 L194.753931,53.34125 Z M202.782294,53.34125 L202.782294,45.77 L201.454794,45.77 L201.454794,54.5 L206.269794,54.5 L206.269794,53.34125 L202.782294,53.34125 Z M211.665657,54.75875 C212.678157,54.75875 213.443157,54.336875 213.977532,53.493125 C214.495032,52.655 214.753782,51.54125 214.753782,50.135 C214.753782,48.734375 214.495032,47.620625 213.977532,46.788125 C213.443157,45.93875 212.678157,45.516875 211.665657,45.516875 C210.664407,45.516875 209.888157,45.93875 209.359407,46.788125 C208.836282,47.620625 208.577532,48.734375 208.577532,50.135 C208.577532,51.54125 208.836282,52.655 209.359407,53.493125 C209.888157,54.336875 210.664407,54.75875 211.665657,54.75875 Z M211.665657,53.684375 C211.187532,53.684375 210.748782,53.369375 210.422532,52.835 C210.090657,52.23875 209.905032,51.333125 209.905032,50.135 C209.905032,48.925625 210.079407,48.03125 210.422532,47.440625 C210.754407,46.8725 211.176282,46.585625 211.665657,46.585625 C212.160657,46.585625 212.571282,46.8725 212.908782,47.440625 C213.251907,48.03125 213.426282,48.925625 213.426282,50.135 C213.426282,51.333125 213.240657,52.23875 212.908782,52.835 C212.576907,53.369375 212.143782,53.684375 211.665657,53.684375 Z M222.315271,53.099375 C221.634646,53.493125 221.010271,53.69 220.447771,53.69 C220.042771,53.69 219.671521,53.549375 219.328396,53.279375 C218.985271,52.998125 218.698396,52.57625 218.479021,52.008125 C218.254021,51.42875 218.141521,50.81 218.141521,50.135 C218.141521,49.47125 218.248396,48.858125 218.467771,48.284375 C218.889646,47.170625 219.620896,46.585625 220.447771,46.585625 C221.015896,46.585625 221.640271,46.7825 222.315271,47.17625 L222.315271,45.899375 C221.617771,45.64625 221.010271,45.51125 220.492771,45.51125 C219.795271,45.51125 219.159646,45.696875 218.585896,46.07375 C218.006521,46.445 217.562146,46.990625 217.247146,47.71625 C216.932146,48.43625 216.774646,49.240625 216.774646,50.135 C216.774646,51.035 216.932146,51.845 217.252771,52.570625 C217.573396,53.29625 218.017771,53.841875 218.597146,54.2075 C219.170896,54.57875 219.806521,54.75875 220.492771,54.75875 C221.010271,54.75875 221.617771,54.62375 222.315271,54.370625 L222.315271,53.099375 Z M230.079259,54.5 L230.079259,53.43125 L228.206134,53.43125 L228.206134,46.844375 L230.079259,46.844375 L230.079259,45.77 L225.011134,45.77 L225.011134,46.844375 L226.878634,46.844375 L226.878634,53.43125 L225.011134,53.43125 L225.011134,54.5 L230.079259,54.5 Z M236.144498,54.5 L236.144498,46.92875 L238.703873,46.92875 L238.703873,45.77 L232.268873,45.77 L232.268873,46.92875 L234.816998,46.92875 L234.816998,54.5 L236.144498,54.5 Z M244.088486,54.5 L244.088486,50.48375 L246.698486,45.77 L245.314736,45.77 L243.486611,49.038125 L243.486611,49.038125 L241.652861,45.77 L240.150986,45.77 L242.760986,50.478125 L242.760986,54.5 L244.088486,54.5 Z M262.383963,54.573125 L262.383963,53.38625 C261.078963,52.73375 259.762713,52.064375 258.452088,51.40625 L262.383963,49.454375 L262.383963,48.261875 L256.072713,51.411875 L262.383963,54.573125 Z M270.322326,54.573125 L264.011076,51.411875 L270.322326,48.261875 L270.322326,49.454375 L266.390451,51.40625 L269.014201,52.7291667 C269.451076,52.949375 269.887326,53.16875 270.322326,53.38625 L270.322326,54.573125 Z" id="&gt;&gt;FARMINGSYNTHETICVELOCITY&lt;&lt;" fill="#F8E71C" opacity="0.600000024"></path>
                <path d="M14.4644585,28.2 L14.0144585,30.0675 L13.4969585,28.1775 L6.00445847,4.08 L0.424458466,4.08 L11.2244585,39 L16.3769585,39 L27.1319585,4.08 L21.9569585,4.08 L14.4644585,28.2 Z M41.3579121,34.365 L41.3579121,23.34 L53.5979121,23.34 L53.5979121,19.065 L41.3579121,19.065 L41.3579121,8.3775 L54.9704121,8.3775 L54.9704121,4.08 L36.0479121,4.08 L36.0479121,39 L55.3079121,39 L55.3079121,34.365 L41.3579121,34.365 Z M73.4713658,34.365 L73.4713658,4.08 L68.1613658,4.08 L68.1613658,39 L87.4213658,39 L87.4213658,34.365 L73.4713658,34.365 Z M109.004819,40.035 C113.054819,40.035 116.114819,38.3475 118.252319,34.9725 C120.322319,31.62 121.357319,27.165 121.357319,21.54 C121.357319,15.9375 120.322319,11.4825 118.252319,8.1525 C116.114819,4.755 113.054819,3.0675 109.004819,3.0675 C104.999819,3.0675 101.894819,4.755 99.7798195,8.1525 C97.6873195,11.4825 96.6523195,15.9375 96.6523195,21.54 C96.6523195,27.165 97.6873195,31.62 99.7798195,34.9725 C101.894819,38.3475 104.999819,40.035 109.004819,40.035 Z M109.004819,35.7375 C107.092319,35.7375 105.337319,34.4775 104.032319,32.34 C102.704819,29.955 101.962319,26.3325 101.962319,21.54 C101.962319,16.7025 102.659819,13.125 104.032319,10.7625 C105.359819,8.49 107.047319,7.3425 109.004819,7.3425 C110.984819,7.3425 112.627319,8.49 113.977319,10.7625 C115.349819,13.125 116.047319,16.7025 116.047319,21.54 C116.047319,26.3325 115.304819,29.955 113.977319,32.34 C112.649819,34.4775 110.917319,35.7375 109.004819,35.7375 Z M143.413273,39 L143.413273,8.715 L153.650773,8.715 L153.650773,4.08 L127.910773,4.08 L127.910773,8.715 L138.103273,8.715 L138.103273,39 L143.413273,39 Z M172.511727,40.035 C176.561727,40.035 179.621727,38.3475 181.759227,34.9725 C183.829227,31.62 184.864227,27.165 184.864227,21.54 C184.864227,15.9375 183.829227,11.4825 181.759227,8.1525 C179.621727,4.755 176.561727,3.0675 172.511727,3.0675 C168.506727,3.0675 165.401727,4.755 163.286727,8.1525 C161.194227,11.4825 160.159227,15.9375 160.159227,21.54 C160.159227,27.165 161.194227,31.62 163.286727,34.9725 C165.401727,38.3475 168.506727,40.035 172.511727,40.035 Z M172.511727,35.7375 C170.599227,35.7375 168.844227,34.4775 167.539227,32.34 C166.211727,29.955 165.469227,26.3325 165.469227,21.54 C165.469227,16.7025 166.166727,13.125 167.539227,10.7625 C168.866727,8.49 170.554227,7.3425 172.511727,7.3425 C174.491727,7.3425 176.134227,8.49 177.484227,10.7625 C178.856727,13.125 179.554227,16.7025 179.554227,21.54 C179.554227,26.3325 178.811727,29.955 177.484227,32.34 C176.156727,34.4775 174.424227,35.7375 172.511727,35.7375 Z M199.135181,39 L199.135181,22.4625 L212.005181,39 L218.665181,39 L208.529876,26.0162589 C207.115051,24.2016955 205.721063,22.4122059 204.377681,20.685 L216.932681,4.08 L211.150181,4.08 L199.135181,19.92 L199.135181,4.08 L193.825181,4.08 L193.825181,39 L199.135181,39 Z M231.878634,34.365 L231.878634,23.34 L244.118634,23.34 L244.118634,19.065 L231.878634,19.065 L231.878634,8.3775 L245.491134,8.3775 L245.491134,4.08 L226.568634,4.08 L226.568634,39 L245.828634,39 L245.828634,34.365 L231.878634,34.365 Z M261.584588,16.23 L261.584588,39 L256.634588,39 L256.634588,4.08 L261.337088,4.08 L273.532088,27.03 L274.004588,28.29 C274.004588,27.93 273.982088,27.5475 273.982088,27.1875 L273.982088,4.08 L278.932088,4.08 L278.932088,39 L274.162088,39 L262.327088,16.4775 L261.562088,14.8575 C261.584588,15.3075 261.584588,15.8025 261.584588,16.23 Z" id="VELOTOKEN" fill="#50E3C2" opacity="0.273925781"></path>
                <path d="M19.4644585,33.7 L19.0144585,35.5675 L18.4969585,33.6775 L11.0044585,9.58 L5.42445847,9.58 L16.2244585,44.5 L21.3769585,44.5 L32.1319585,9.58 L26.9569585,9.58 L19.4644585,33.7 Z M46.3579121,39.865 L46.3579121,28.84 L58.5979121,28.84 L58.5979121,24.565 L46.3579121,24.565 L46.3579121,13.8775 L59.9704121,13.8775 L59.9704121,9.58 L41.0479121,9.58 L41.0479121,44.5 L60.3079121,44.5 L60.3079121,39.865 L46.3579121,39.865 Z M78.4713658,39.865 L78.4713658,9.58 L73.1613658,9.58 L73.1613658,44.5 L92.4213658,44.5 L92.4213658,39.865 L78.4713658,39.865 Z M114.004819,45.535 C118.054819,45.535 121.114819,43.8475 123.252319,40.4725 C125.322319,37.12 126.357319,32.665 126.357319,27.04 C126.357319,21.4375 125.322319,16.9825 123.252319,13.6525 C121.114819,10.255 118.054819,8.5675 114.004819,8.5675 C109.999819,8.5675 106.894819,10.255 104.779819,13.6525 C102.687319,16.9825 101.652319,21.4375 101.652319,27.04 C101.652319,32.665 102.687319,37.12 104.779819,40.4725 C106.894819,43.8475 109.999819,45.535 114.004819,45.535 Z M114.004819,41.2375 C112.092319,41.2375 110.337319,39.9775 109.032319,37.84 C107.704819,35.455 106.962319,31.8325 106.962319,27.04 C106.962319,22.2025 107.659819,18.625 109.032319,16.2625 C110.359819,13.99 112.047319,12.8425 114.004819,12.8425 C115.984819,12.8425 117.627319,13.99 118.977319,16.2625 C120.349819,18.625 121.047319,22.2025 121.047319,27.04 C121.047319,31.8325 120.304819,35.455 118.977319,37.84 C117.649819,39.9775 115.917319,41.2375 114.004819,41.2375 Z M148.413273,44.5 L148.413273,14.215 L158.650773,14.215 L158.650773,9.58 L132.910773,9.58 L132.910773,14.215 L143.103273,14.215 L143.103273,44.5 L148.413273,44.5 Z M177.511727,45.535 C181.561727,45.535 184.621727,43.8475 186.759227,40.4725 C188.829227,37.12 189.864227,32.665 189.864227,27.04 C189.864227,21.4375 188.829227,16.9825 186.759227,13.6525 C184.621727,10.255 181.561727,8.5675 177.511727,8.5675 C173.506727,8.5675 170.401727,10.255 168.286727,13.6525 C166.194227,16.9825 165.159227,21.4375 165.159227,27.04 C165.159227,32.665 166.194227,37.12 168.286727,40.4725 C170.401727,43.8475 173.506727,45.535 177.511727,45.535 Z M177.511727,41.2375 C175.599227,41.2375 173.844227,39.9775 172.539227,37.84 C171.211727,35.455 170.469227,31.8325 170.469227,27.04 C170.469227,22.2025 171.166727,18.625 172.539227,16.2625 C173.866727,13.99 175.554227,12.8425 177.511727,12.8425 C179.491727,12.8425 181.134227,13.99 182.484227,16.2625 C183.856727,18.625 184.554227,22.2025 184.554227,27.04 C184.554227,31.8325 183.811727,35.455 182.484227,37.84 C181.156727,39.9775 179.424227,41.2375 177.511727,41.2375 Z M204.135181,44.5 L204.135181,27.9625 L217.005181,44.5 L223.665181,44.5 L213.529876,31.5162589 C212.115051,29.7016955 210.721063,27.9122059 209.377681,26.185 L221.932681,9.58 L216.150181,9.58 L204.135181,25.42 L204.135181,9.58 L198.825181,9.58 L198.825181,44.5 L204.135181,44.5 Z M236.878634,39.865 L236.878634,28.84 L249.118634,28.84 L249.118634,24.565 L236.878634,24.565 L236.878634,13.8775 L250.491134,13.8775 L250.491134,9.58 L231.568634,9.58 L231.568634,44.5 L250.828634,44.5 L250.828634,39.865 L236.878634,39.865 Z M266.584588,21.73 L266.584588,44.5 L261.634588,44.5 L261.634588,9.58 L266.337088,9.58 L278.532088,32.53 L279.004588,33.79 C279.004588,33.43 278.982088,33.0475 278.982088,32.6875 L278.982088,9.58 L283.932088,9.58 L283.932088,44.5 L279.162088,44.5 L267.327088,21.9775 L266.562088,20.3575 C266.584588,20.8075 266.584588,21.3025 266.584588,21.73 Z" id="VELOTOKEN" fill="#D0021B" opacity="0.273925781"></path>
                <path d="M15.9644585,25.2 L15.5144585,27.0675 L14.9969585,25.1775 L7.50445847,1.08 L1.92445847,1.08 L12.7244585,36 L17.8769585,36 L28.6319585,1.08 L23.4569585,1.08 L15.9644585,25.2 Z M42.8579121,31.365 L42.8579121,20.34 L55.0979121,20.34 L55.0979121,16.065 L42.8579121,16.065 L42.8579121,5.3775 L56.4704121,5.3775 L56.4704121,1.08 L37.5479121,1.08 L37.5479121,36 L56.8079121,36 L56.8079121,31.365 L42.8579121,31.365 Z M74.9713658,31.365 L74.9713658,1.08 L69.6613658,1.08 L69.6613658,36 L88.9213658,36 L88.9213658,31.365 L74.9713658,31.365 Z M110.504819,37.035 C114.554819,37.035 117.614819,35.3475 119.752319,31.9725 C121.822319,28.62 122.857319,24.165 122.857319,18.54 C122.857319,12.9375 121.822319,8.4825 119.752319,5.1525 C117.614819,1.755 114.554819,0.0675 110.504819,0.0675 C106.499819,0.0675 103.394819,1.755 101.279819,5.1525 C99.1873195,8.4825 98.1523195,12.9375 98.1523195,18.54 C98.1523195,24.165 99.1873195,28.62 101.279819,31.9725 C103.394819,35.3475 106.499819,37.035 110.504819,37.035 Z M110.504819,32.7375 C108.592319,32.7375 106.837319,31.4775 105.532319,29.34 C104.204819,26.955 103.462319,23.3325 103.462319,18.54 C103.462319,13.7025 104.159819,10.125 105.532319,7.7625 C106.859819,5.49 108.547319,4.3425 110.504819,4.3425 C112.484819,4.3425 114.127319,5.49 115.477319,7.7625 C116.849819,10.125 117.547319,13.7025 117.547319,18.54 C117.547319,23.3325 116.804819,26.955 115.477319,29.34 C114.149819,31.4775 112.417319,32.7375 110.504819,32.7375 Z M144.913273,36 L144.913273,5.715 L155.150773,5.715 L155.150773,1.08 L129.410773,1.08 L129.410773,5.715 L139.603273,5.715 L139.603273,36 L144.913273,36 Z M174.011727,37.035 C178.061727,37.035 181.121727,35.3475 183.259227,31.9725 C185.329227,28.62 186.364227,24.165 186.364227,18.54 C186.364227,12.9375 185.329227,8.4825 183.259227,5.1525 C181.121727,1.755 178.061727,0.0675 174.011727,0.0675 C170.006727,0.0675 166.901727,1.755 164.786727,5.1525 C162.694227,8.4825 161.659227,12.9375 161.659227,18.54 C161.659227,24.165 162.694227,28.62 164.786727,31.9725 C166.901727,35.3475 170.006727,37.035 174.011727,37.035 Z M174.011727,32.7375 C172.099227,32.7375 170.344227,31.4775 169.039227,29.34 C167.711727,26.955 166.969227,23.3325 166.969227,18.54 C166.969227,13.7025 167.666727,10.125 169.039227,7.7625 C170.366727,5.49 172.054227,4.3425 174.011727,4.3425 C175.991727,4.3425 177.634227,5.49 178.984227,7.7625 C180.356727,10.125 181.054227,13.7025 181.054227,18.54 C181.054227,23.3325 180.311727,26.955 178.984227,29.34 C177.656727,31.4775 175.924227,32.7375 174.011727,32.7375 Z M200.635181,36 L200.635181,19.4625 L213.505181,36 L220.165181,36 L210.029876,23.0162589 C208.615051,21.2016955 207.221063,19.4122059 205.877681,17.685 L218.432681,1.08 L212.650181,1.08 L200.635181,16.92 L200.635181,1.08 L195.325181,1.08 L195.325181,36 L200.635181,36 Z M233.378634,31.365 L233.378634,20.34 L245.618634,20.34 L245.618634,16.065 L233.378634,16.065 L233.378634,5.3775 L246.991134,5.3775 L246.991134,1.08 L228.068634,1.08 L228.068634,36 L247.328634,36 L247.328634,31.365 L233.378634,31.365 Z M263.084588,13.23 L263.084588,36 L258.134588,36 L258.134588,1.08 L262.837088,1.08 L275.032088,24.03 L275.504588,25.29 C275.504588,24.93 275.482088,24.5475 275.482088,24.1875 L275.482088,1.08 L280.432088,1.08 L280.432088,36 L275.662088,36 L263.827088,13.4775 L263.062088,11.8575 C263.084588,12.3075 263.084588,12.8025 263.084588,13.23 Z" id="VELOTOKEN" fill="#FFFFFF"></path>
            </g>
        </g>
    </g>
</svg>