<?xml version="1.0" encoding="UTF-8"?>
<svg width="83px" height="52px" viewBox="0 0 83 52" version="1.1" xmlns="http://www.w3.org/2000/svg" xmlns:xlink="http://www.w3.org/1999/xlink">
    <!-- Generator: Sketch 59.1 (86144) - https://sketch.com -->
    <title>velo-logo-displaced</title>
    <desc>Created with Sketch.</desc>
    <g id="AppDesign'" stroke="none" stroke-width="1" fill="none" fill-rule="evenodd">
        <g id="Desktop" transform="translate(-410.000000, -40.000000)" fill-rule="nonzero">
            <g id="velo-logo-displaced" transform="translate(410.000000, 40.000000)">
                <g id="velo-token-logo" opacity="0.5" transform="translate(2.592000, 2.592000)" fill="#D0021B">
                    <polygon id="Path" points="38.4282112 43.3382396 55.1577595 9.06163191 42.6186247 9.06163191 32.3066877 31.0805984"></polygon>
                    <path d="M44.7943834,33.9775366 C44.7943834,33.9775366 56.1608502,38.8907325 64.8931349,33.3199297 C75.0291381,26.8534616 73.6843498,19.1884517 70.5763683,14.3459663 C67.6192483,9.74271775 60.4085427,2.58917998 47.8434346,1.26453806 C47.5994633,0.985231891 47.0879487,0 47.0879487,0 C47.0879487,0 56.612256,0.406584931 67.2126296,6.20837512 C75.9272351,10.9766146 82.8032169,20.488345 78.8195319,30.6482542 C75.5712964,38.9343373 65.5142597,44.2906518 59.1651144,46.3483251 C53.9521444,48.0371257 43.6075281,47.4679068 39.7923836,44.2906518" id="Path"></path>
                    <path d="M37.4284796,15.8589239 C35.5823269,11.4884002 29.6087879,2.4225165 17.8816021,4.15773254 C11.2707289,5.13460365 2.8548592,12.5515005 0.93227334,18.5025001 C-2.70241344,29.7571893 4.87504422,38.3411341 13.5613694,43.1404417 C22.3688117,48.0070789 32.7613584,48.8540155 32.7613584,48.8540155 C32.7613584,48.8540155 32.2322063,47.8877754 31.9887963,47.6078257 C19.4525958,46.2765878 12.4795474,40.1802978 9.52923066,35.5664422 C6.42839952,30.7163421 5.1125747,23.4967094 13.455539,17.2196923 C24.2631761,9.08697456 31.3291201,29.2681631 31.3291201,29.2681631" id="Path"></path>
                </g>
                <g id="velo-token-logo-copy" opacity="0.5" fill="#9013FE">
                    <polygon id="Path" points="38.4282112 43.3382396 55.1577595 9.06163191 42.6186247 9.06163191 32.3066877 31.0805984"></polygon>
                    <path d="M44.7943834,33.9775366 C44.7943834,33.9775366 56.1608502,38.8907325 64.8931349,33.3199297 C75.0291381,26.8534616 73.6843498,19.1884517 70.5763683,14.3459663 C67.6192483,9.74271775 60.4085427,2.58917998 47.8434346,1.26453806 C47.5994633,0.985231891 47.0879487,0 47.0879487,0 C47.0879487,0 56.612256,0.406584931 67.2126296,6.20837512 C75.9272351,10.9766146 82.8032169,20.488345 78.8195319,30.6482542 C75.5712964,38.9343373 65.5142597,44.2906518 59.1651144,46.3483251 C53.9521444,48.0371257 43.6075281,47.4679068 39.7923836,44.2906518" id="Path"></path>
                    <path d="M37.4284796,15.8589239 C35.5823269,11.4884002 29.6087879,2.4225165 17.8816021,4.15773254 C11.2707289,5.13460365 2.8548592,12.5515005 0.93227334,18.5025001 C-2.70241344,29.7571893 4.87504422,38.3411341 13.5613694,43.1404417 C22.3688117,48.0070789 32.7613584,48.8540155 32.7613584,48.8540155 C32.7613584,48.8540155 32.2322063,47.8877754 31.9887963,47.6078257 C19.4525958,46.2765878 12.4795474,40.1802978 9.52923066,35.5664422 C6.42839952,30.7163421 5.1125747,23.4967094 13.455539,17.2196923 C24.2631761,9.08697456 31.3291201,29.2681631 31.3291201,29.2681631" id="Path"></path>
                </g>
                <g id="velo-token-logo-copy-2" transform="translate(1.036800, 1.036800)" fill="#FFFFFF">
                    <polygon id="Path" points="38.4282112 43.3382396 55.1577595 9.06163191 42.6186247 9.06163191 32.3066877 31.0805984"></polygon>
                    <path d="M44.7943834,33.9775366 C44.7943834,33.9775366 56.1608502,38.8907325 64.8931349,33.3199297 C75.0291381,26.8534616 73.6843498,19.1884517 70.5763683,14.3459663 C67.6192483,9.74271775 60.4085427,2.58917998 47.8434346,1.26453806 C47.5994633,0.985231891 47.0879487,0 47.0879487,0 C47.0879487,0 56.612256,0.406584931 67.2126296,6.20837512 C75.9272351,10.9766146 82.8032169,20.488345 78.8195319,30.6482542 C75.5712964,38.9343373 65.5142597,44.2906518 59.1651144,46.3483251 C53.9521444,48.0371257 43.6075281,47.4679068 39.7923836,44.2906518" id="Path"></path>
                    <path d="M37.4284796,15.8589239 C35.5823269,11.4884002 29.6087879,2.4225165 17.8816021,4.15773254 C11.2707289,5.13460365 2.8548592,12.5515005 0.93227334,18.5025001 C-2.70241344,29.7571893 4.87504422,38.3411341 13.5613694,43.1404417 C22.3688117,48.0070789 32.7613584,48.8540155 32.7613584,48.8540155 C32.7613584,48.8540155 32.2322063,47.8877754 31.9887963,47.6078257 C19.4525958,46.2765878 12.4795474,40.1802978 9.52923066,35.5664422 C6.42839952,30.7163421 5.1125747,23.4967094 13.455539,17.2196923 C24.2631761,9.08697456 31.3291201,29.2681631 31.3291201,29.2681631" id="Path"></path>
                </g>
            </g>
        </g>
    </g>
</svg>