<?xml version="1.0" encoding="UTF-8"?>
<svg width="216px" height="160px" viewBox="0 0 216 160" version="1.1" xmlns="http://www.w3.org/2000/svg" xmlns:xlink="http://www.w3.org/1999/xlink">
    <!-- Generator: Sketch 59.1 (86144) - https://sketch.com -->
    <title>discord-logo</title>
    <desc>Created with Sketch.</desc>
    <g id="Landing-Page" stroke="none" stroke-width="1" fill="none" fill-rule="evenodd">
        <g id="LandingPage-Copy-3" transform="translate(-404.000000, -630.000000)" fill="#FFFFFF" fill-rule="nonzero">
            <g id="discord-logo" transform="translate(404.000000, 630.000000)">
                <path d="M186.065217,17.7414868 C167.376522,2.66387596 137.808,0.108587981 136.540174,0.0191764311 C134.56597,-0.143711279 132.704915,0.962515093 131.90087,2.77681686 C131.336887,4.04844292 130.858428,5.35645863 130.468696,6.69210157 C142.832348,8.78621418 158.018087,12.9979688 171.757565,21.5438306 C173.183521,22.4306877 174.029053,24.0125714 173.975658,25.6936013 C173.922263,27.3746313 172.978052,28.8994191 171.498701,29.6935918 C170.019351,30.4877646 168.229608,30.4306686 166.803652,29.5438113 C143.184522,14.8473761 113.686435,14.1179661 108,14.1179661 C102.318261,14.1179661 72.8013913,14.852082 49.1963478,29.5391055 C46.9920113,30.9100679 44.0960723,30.2305958 42.728087,28.0214621 C41.3601016,25.8123284 42.0380983,22.9100871 44.2424348,21.5391247 C57.981913,13.0167922 73.1676522,8.78621418 85.5313043,6.71092505 C84.8175652,4.37681302 84.1695652,2.90387538 84.1226087,2.77681686 C83.321346,0.94875848 81.4439631,-0.161554275 79.4598261,0.0191764311 C78.192,0.113293852 48.6234783,2.66387596 29.6765217,17.9438392 C19.7921739,27.110876 0,80.7154531 0,127.058871 C0,127.887104 0.220695652,128.677691 0.624521739,129.392983 C14.270087,153.439984 51.5253913,159.722322 60.0151304,159.999984 L60.1606957,159.999984 C61.6635576,160.003876 63.0774874,159.286625 63.9641739,158.070561 L72.5431304,146.23059 C49.3794783,140.240016 37.5464348,130.056511 36.8702609,129.449454 C34.9252581,127.728928 34.7402543,124.753999 36.4570435,122.804764 C38.1738326,120.855528 41.1423015,120.670122 43.0873043,122.390647 C43.3596522,122.64947 65.1521739,141.176484 108,141.176484 C150.918261,141.176484 172.710783,122.574176 172.931478,122.390647 C174.882356,120.682557 177.84498,120.880495 179.552348,122.832999 C180.372067,123.766437 180.788081,124.988057 180.708821,126.22897 C180.629561,127.469883 180.061523,128.628376 179.129739,129.449454 C178.453565,130.056511 166.620522,140.240016 143.45687,146.23059 L152.040522,158.070561 C152.926234,159.285282 154.338096,160.002369 155.839304,159.999984 L155.980174,159.999984 C164.479304,159.722322 201.729913,153.435278 215.380174,129.392983 C215.779304,128.677691 216,127.887104 216,127.058871 C216,80.7154531 196.207826,27.1155819 186.065217,17.7414868 Z M77.4782609,108.235387 C68.3968696,108.235387 61.0434783,99.8118777 61.0434783,89.4119027 C61.0434783,79.0119277 68.3968696,70.5884186 77.4782609,70.5884186 C86.5596522,70.5884186 93.9130435,79.0119277 93.9130435,89.4119027 C93.9130435,99.8118777 86.5596522,108.235387 77.4782609,108.235387 Z M138.521739,108.235387 C129.440348,108.235387 122.086957,99.8118777 122.086957,89.4119027 C122.086957,79.0119277 129.440348,70.5884186 138.521739,70.5884186 C147.60313,70.5884186 154.956522,79.0119277 154.956522,89.4119027 C154.956522,99.8118777 147.60313,108.235387 138.521739,108.235387 Z" id="surface1"></path>
            </g>
        </g>
    </g>
</svg>