<?xml version="1.0" encoding="UTF-8"?>
<svg width="255px" height="56px" viewBox="0 0 255 56" version="1.1" xmlns="http://www.w3.org/2000/svg" xmlns:xlink="http://www.w3.org/1999/xlink">
    <!-- Generator: Sketch 59.1 (86144) - https://sketch.com -->
    <title>social-media-elements</title>
    <desc>Created with Sketch.</desc>
    <g id="Landing-Page" stroke="none" stroke-width="1" fill="none" fill-rule="evenodd" opacity="0.400000006">
        <g id="LandingPage-Copy-3" transform="translate(-373.000000, -43.000000)" fill="#FFFFFF" fill-rule="nonzero">
            <g id="social-media-elements" transform="translate(373.000000, 43.000000)">
                <g id="twitter" transform="translate(0.000000, 9.621785)">
                    <path d="M13.2086521,34 C29.0584695,34 37.7260535,20.9201249 37.7260535,9.57843411 C37.7260535,9.20695287 37.7183481,8.83700664 37.701653,8.4691072 C39.3840057,7.25744386 40.8462399,5.74542312 42,4.02438018 C40.4560882,4.70824336 38.7942833,5.16798976 37.0515713,5.37598854 C38.8304988,4.31296892 40.1964151,2.632093 40.8405893,0.628345686 C39.1757021,1.61154296 37.3317922,2.32585125 35.3689617,2.7116596 C33.7965399,1.04331995 31.5575981,0 29.0787605,0 C24.3203992,0 20.4612618,3.84375635 20.4612618,8.5819331 C20.4612618,9.25581853 20.5370319,9.91077169 20.6847193,10.5391174 C13.5230337,10.1801723 7.17221639,6.7649498 2.92267048,1.57137593 C2.18294898,2.83958013 1.756068,4.31322474 1.756068,5.88562397 C1.756068,8.86310246 3.2773772,11.4923812 5.59054802,13.0299861 C4.17685803,12.986749 2.84895516,12.6001731 1.68800336,11.9567328 C1.68671914,11.9928063 1.68671914,12.0278566 1.68671914,12.0662328 C1.68671914,16.2231386 4.65690645,19.6938787 8.60028985,20.4803341 C7.87597921,20.6765642 7.113912,20.7822266 6.32795784,20.7822266 C5.77368044,20.7822266 5.23327279,20.7279883 4.708276,20.6274427 C5.80527273,24.0378043 8.98658886,26.5194627 12.7581411,26.5890515 C9.80875847,28.8916212 6.09345587,30.2631853 2.0555525,30.2631853 C1.3610362,30.2631853 0.674482196,30.2235299 0,30.1442191 C3.81367529,32.5790586 8.34215788,34 13.2089089,34" id="Path"></path>
                </g>
                <g id="medium" transform="translate(101.000000, 0.000000)">
                    <path d="M27.7500011,0 C12.4116216,0 0,12.4116216 0,27.7500011 C0,43.0883806 12.4116216,55.5 27.7500011,55.5 C43.0883806,55.5 55.5,43.0883806 55.5,27.7500011 C55.5,12.4116216 43.0883806,0 27.7500011,0 Z M21.495411,40.9637712 L21.495411,40.9637712 L21.495411,40.9637712 L11.8045903,36.2159194 C11.7070317,36.1183608 11.5010747,35.9124038 11.5010747,35.7064467 L11.5010747,13.7232427 L21.3870126,18.6662117 L21.3870126,40.9637712 L21.495411,40.9637712 Z M22.7094736,30.470802 L22.7094736,20.4873055 L31.5873059,34.9151381 L22.7094736,30.470802 Z M26.644337,24.6172861 L33.5059584,13.6148443 L43.5002947,18.6553718 L33.2024427,35.3053725 L26.644337,24.6172861 Z M43.7929705,40.9637712 L43.7929705,40.9637712 L43.7929705,40.9637712 L34.1021498,36.2159194 L43.7929705,20.4873055 L43.7929705,40.9637712 Z" id="XMLID_8_"></path>
                </g>
                <g id="telegram" transform="translate(215.500000, 11.000000)">
                    <path d="M0.692388522,16.3028765 L9.72486435,19.6612223 L13.2209863,30.8618261 C13.4446879,31.5791843 14.3252517,31.8443375 14.9097245,31.3683115 L19.9445791,27.2794604 C20.4723424,26.8510761 21.2240687,26.8297284 21.7756135,27.2285645 L30.8566974,33.7964736 C31.4819382,34.2491994 32.3677287,33.9078977 32.5245289,33.1552638 L39.1769082,1.27818423 C39.3480818,0.456040356 38.5371634,-0.229817158 37.751333,0.0729546348 L0.681804508,14.3187189 C-0.232994023,14.6701737 -0.225023346,15.9604033 0.692388522,16.3028765 Z M12.6575509,17.8734889 L30.3103793,7.04256345 C30.6276384,6.84848231 30.9540441,7.2758253 30.6816038,7.52757106 L16.1129047,21.0182282 C15.6008214,21.4930827 15.2704956,22.128565 15.1769382,22.8183276 L14.6806655,26.4820485 C14.6149401,26.9712215 13.9251498,27.0197744 13.7896483,26.5463518 L11.8809978,19.8654565 C11.6623922,19.1034505 11.980958,18.2895072 12.6575509,17.8734889 Z" id="XMLID_497_"></path>
                </g>
            </g>
        </g>
    </g>
</svg>