<?xml version="1.0" encoding="UTF-8" standalone="no"?>
<svg
   xmlns:dc="http://purl.org/dc/elements/1.1/"
   xmlns:cc="http://creativecommons.org/ns#"
   xmlns:rdf="http://www.w3.org/1999/02/22-rdf-syntax-ns#"
   xmlns:svg="http://www.w3.org/2000/svg"
   xmlns="http://www.w3.org/2000/svg"
   id="svg1131"
   version="1.1"
   viewBox="0 0 42 34"
   height="34"
   width="42">
  <metadata
     id="metadata1137">
    <rdf:RDF>
      <cc:Work
         rdf:about="">
        <dc:format>image/svg+xml</dc:format>
        <dc:type
           rdf:resource="http://purl.org/dc/dcmitype/StillImage" />
        <dc:title>social-media-elements</dc:title>
      </cc:Work>
    </rdf:RDF>
  </metadata>
  <defs
     id="defs1135" />
  <!-- Generator: Sketch 59.1 (86144) - https://sketch.com -->
  <title
     id="title1118">social-media-elements</title>
  <desc
     id="desc1120">Created with Sketch.</desc>
  <g
     transform="translate(0,-9.621785)"
     style="opacity:0.4;fill:none;fill-rule:evenodd;stroke:none;stroke-width:1"
     id="Landing-Page">
    <g
       id="social-media-elements"
       style="fill:#ffffff;fill-rule:nonzero">
      <path
         id="Path"
         d="m 13.208652,43.621785 c 15.849817,0 24.517401,-13.079875 24.517401,-24.421566 0,-0.371481 -0.0077,-0.741427 -0.0244,-1.109327 C 39.384006,16.879229 40.84624,15.367208 42,13.646165 c -1.543912,0.683863 -3.205717,1.14361 -4.948429,1.351608 1.778928,-1.063019 3.144844,-2.743895 3.789018,-4.747642 -1.664887,0.983197 -3.508797,1.697505 -5.471627,2.083314 -1.572422,-1.66834 -3.811364,-2.71166 -6.290201,-2.71166 -4.758362,0 -8.617499,3.843756 -8.617499,8.581933 0,0.673885 0.07577,1.328839 0.223457,1.957184 C 13.523034,19.801957 7.1722164,16.386735 2.9226705,11.193161 2.182949,12.461365 1.756068,13.93501 1.756068,15.507409 c 0,2.977478 1.5213092,5.606757 3.83448,7.144362 -1.41369,-0.04324 -2.7415928,-0.429813 -3.9025446,-1.073253 -0.00128,0.03607 -0.00128,0.07112 -0.00128,0.1095 0,4.156906 2.9701873,7.627646 6.9135707,8.414101 -0.7243106,0.19623 -1.4863778,0.301893 -2.272332,0.301893 -0.5542774,0 -1.094685,-0.05424 -1.6196818,-0.154784 1.0969967,3.410361 4.2783129,5.89202 8.0498647,5.961608 C 9.8087585,38.513406 6.0934559,39.88497 2.0555525,39.88497 1.3610362,39.88497 0.6744822,39.845315 0,39.766004 c 3.8136753,2.43484 8.3421579,3.855781 13.208909,3.855781" />
      <g
         id="medium"
         transform="translate(101)">
        <path
           d="M 27.750001,0 C 12.411622,0 0,12.411622 0,27.750001 0,43.088381 12.411622,55.5 27.750001,55.5 43.088381,55.5 55.5,43.088381 55.5,27.750001 55.5,12.411622 43.088381,0 27.750001,0 Z m -6.25459,40.963771 v 0 0 L 11.80459,36.215919 c -0.09756,-0.09756 -0.303515,-0.303515 -0.303515,-0.509472 V 13.723243 l 9.885938,4.942969 v 22.297559 z m 1.214063,-10.492969 v -9.983496 l 8.877832,14.427832 z m 3.934863,-5.853516 6.861621,-11.002442 9.994337,5.040528 -10.297852,16.65 z m 17.148634,16.346485 v 0 0 L 34.10215,36.215919 43.792971,20.487306 Z"
           id="XMLID_8_" />
      </g>
      <g
         id="telegram"
         transform="translate(215.5,11)">
        <path
           d="m 0.69238852,16.302876 9.03247588,3.358346 3.4961216,11.200604 c 0.223702,0.717358 1.104266,0.982512 1.688738,0.506485 l 5.034855,-4.088851 c 0.527763,-0.428384 1.27949,-0.449732 1.831034,-0.0509 l 9.081084,6.56791 c 0.625241,0.452725 1.511032,0.111424 1.667832,-0.64121 L 39.176908,1.2781842 C 39.348082,0.45604036 38.537163,-0.22981716 37.751333,0.07295463 L 0.68180451,14.318719 c -0.91479853,0.351455 -0.90682786,1.641684 0.010584,1.984157 z M 12.657551,17.873489 30.310379,7.0425634 c 0.317259,-0.1940811 0.643665,0.2332619 0.371225,0.4850077 L 16.112905,21.018228 c -0.512084,0.474855 -0.842409,1.110337 -0.935967,1.8001 l -0.496272,3.66372 c -0.06573,0.489173 -0.755516,0.537726 -0.891018,0.0643 l -1.90865,-6.680896 c -0.218606,-0.762006 0.09996,-1.575949 0.776553,-1.991967 z"
           id="XMLID_497_" />
      </g>
    </g>
  </g>
</svg>
