<?xml version="1.0" encoding="UTF-8"?>
<svg width="155px" height="95px" viewBox="0 0 155 95" version="1.1" xmlns="http://www.w3.org/2000/svg" xmlns:xlink="http://www.w3.org/1999/xlink">
    <!-- Generator: Sketch 59.1 (86144) - https://sketch.com -->
    <title>velo-token-logo</title>
    <desc>Created with Sketch.</desc>
    <g id="Landing-Page" stroke="none" stroke-width="1" fill="none" fill-rule="evenodd">
        <g id="LandingPage-Copy-3" transform="translate(-435.000000, -1168.000000)" fill="#FFFFFF" fill-rule="nonzero">
            <g id="velo-token-logo" transform="translate(435.000000, 1168.000000)">
                <polygon id="Path" points="74.1284936 83.599999 106.399999 17.4799998 82.2118531 17.4799998 62.3199992 59.9548579"></polygon>
                <path d="M86.4089182,65.5430875 C86.4089182,65.5430875 108.334973,75.0207029 125.179658,64.2745556 C144.732133,51.8006587 142.13802,37.0147602 136.142685,27.673546 C130.438364,18.7938228 116.528824,4.99456013 92.2905756,2.43930952 C91.8199521,1.90052447 90.8332342,0 90.8332342,0 C90.8332342,0 109.20574,0.784307349 129.653992,11.9760322 C146.464574,21.1740251 159.728427,39.5222703 152.04385,59.1208606 C145.777963,75.1048171 126.377815,85.4372139 114.130236,89.4064911 C104.074352,92.6642083 84.1194598,91.566178 76.759999,85.4372139" id="Path"></path>
                <path d="M72.1999991,30.5920599 C68.6387476,22.1612657 57.1157173,4.67306421 34.4938312,8.02031737 C21.7413752,9.9047138 5.50705862,24.2119994 1.79836678,35.6915511 C-5.21298888,57.4019854 9.40402045,73.9605209 26.160049,83.2184444 C43.1497138,92.6062476 63.1970646,94.2399988 63.1970646,94.2399988 C63.1970646,94.2399988 62.1763237,92.3761097 61.7067829,91.8360832 C37.5242974,89.2681088 24.073201,77.5082902 18.3820035,68.6081059 C12.400462,59.2522029 9.86221969,45.3254424 25.9559008,33.216999 C46.8039661,17.5288861 60.4342593,56.4586479 60.4342593,56.4586479" id="Path"></path>
            </g>
        </g>
    </g>
</svg>