<?xml version="1.0" encoding="UTF-8"?>
<svg width="568px" height="110px" viewBox="0 0 568 110" version="1.1" xmlns="http://www.w3.org/2000/svg" xmlns:xlink="http://www.w3.org/1999/xlink">
    <!-- Generator: Sketch 59.1 (86144) - https://sketch.com -->
    <title>velotoken-logo</title>
    <desc>Created with Sketch.</desc>
    <g id="Landing-Page" stroke="none" stroke-width="1" fill="none" fill-rule="evenodd">
        <g id="LandingPage-Copy-3" transform="translate(-224.000000, -144.000000)" fill-rule="nonzero">
            <g id="velotoken-logo" transform="translate(224.000000, 124.000000)">
                <path d="M36.1248706,116.52375 L36.1248706,118.875 C38.7348706,120.18 41.3786206,121.51875 43.9998706,122.835 L36.1248706,126.73875 L36.1248706,129.14625 L48.7473706,122.82375 L36.1248706,116.52375 Z M52.0015974,116.52375 L52.0015974,118.875 C54.6115974,120.18 57.2553474,121.51875 59.8765974,122.835 L52.0015974,126.73875 L52.0015974,129.14625 L64.6240974,122.82375 L52.0015974,116.52375 Z M88.1200511,129 L88.1200511,121.17 L94.5775511,121.17 L94.5775511,119.0325 L88.1200511,119.0325 L88.1200511,113.68875 L95.2638011,113.68875 L95.2638011,111.54 L85.4650511,111.54 L85.4650511,129 L88.1200511,129 Z M102.860528,125.265 L108.530528,125.265 L109.689278,129 L112.490528,129 L107.079278,111.54 L104.503028,111.54 L99.136778,129 L101.724278,129 L102.860528,125.265 Z M105.448028,116.95125 L105.684278,116.0175 L105.943028,116.95125 L107.900528,123.11625 L103.524278,123.11625 L105.448028,116.95125 Z M120.897255,121.7775 L125.408505,129 L128.547255,129 L123.541005,120.91125 C124.317255,120.46125 124.902255,119.98875 125.341005,119.49375 C126.286005,118.4025 126.837255,116.95125 126.837255,115.57875 C126.837255,114.81375 126.634755,114.11625 126.229755,113.475 C125.824755,112.8225 125.251005,112.33875 124.508505,112.02375 C123.766005,111.70875 122.641005,111.54 121.133505,111.54 L116.363505,111.54 L116.363505,129 L119.018505,129 L119.018505,121.7775 L120.897255,121.7775 Z M119.018505,113.68875 L120.458505,113.68875 C121.932255,113.68875 122.922255,113.925 123.473505,114.36375 C124.002255,114.79125 124.272255,115.35375 124.272255,116.085 C124.272255,116.50125 124.182255,116.90625 124.024755,117.345 C123.856005,117.7725 123.608505,118.16625 123.282255,118.5375 C122.967255,118.90875 122.483505,119.2575 121.853505,119.6175 L119.018505,119.6175 L119.018505,113.68875 Z M136.155232,125.6025 L138.686482,125.6025 L141.375232,118.00875 L141.420232,117.84 L141.420232,129 L143.906482,129 L143.906482,111.54 L141.363982,111.54 L139.089502,117.99084 C138.582982,119.433 138.078982,120.873 137.583982,122.295 L133.815232,111.54 L131.216482,111.54 L131.216482,129 L133.443982,129 L133.443982,118.00875 L136.155232,125.6025 Z M158.500708,129 L158.500708,126.8625 L154.754458,126.8625 L154.754458,113.68875 L158.500708,113.68875 L158.500708,111.54 L148.364458,111.54 L148.364458,113.68875 L152.099458,113.68875 L152.099458,126.8625 L148.364458,126.8625 L148.364458,129 L158.500708,129 Z M166.209935,129 L166.209935,117.615 C166.209935,117.40125 166.209935,117.15375 166.198685,116.92875 L166.581185,117.73875 L172.498685,129 L174.883685,129 L174.883685,111.54 L172.408685,111.54 L172.408685,123.09375 L172.419935,123.645 L172.419935,123.645 L172.183685,123.015 L166.086185,111.54 L163.734935,111.54 L163.734935,129 L166.209935,129 Z M190.602912,120.135 L186.249162,120.135 L186.249162,122.2725 L187.947912,122.2725 L187.947912,127.34625 L187.605492,127.373703 C187.491484,127.38 187.407912,127.38 187.272912,127.38 C185.551662,127.38 184.280412,126.64875 183.481662,125.22 C182.660412,123.735 182.255412,122.10375 182.255412,120.2925 C182.255412,118.9875 182.491662,117.69375 182.896662,116.56875 C183.751662,114.4425 185.247912,113.17125 186.856662,113.17125 C187.992912,113.17125 189.241662,113.565 190.591662,114.3525 L190.591662,111.79875 C189.196662,111.2925 187.981662,111.0225 186.946662,111.0225 C185.562912,111.0225 184.291662,111.39375 183.144162,112.1475 C181.985412,112.89 181.096662,113.98125 180.466662,115.4325 C179.836662,116.8725 179.521662,118.48125 179.521662,120.27 C179.521662,122.0925 179.847912,123.7125 180.489162,125.16375 C181.794162,128.06625 184.156662,129.5175 187.081662,129.5175 C188.094162,129.5175 189.286662,129.315 190.602912,128.9325 L190.602912,120.135 Z M211.702616,128.5725 C212.793866,128.96625 213.693866,129.21375 214.290116,129.3375 C214.886366,129.45 215.583866,129.5175 216.258866,129.5175 C218.430116,129.5175 220.016366,129.0225 221.017616,128.0325 C222.018866,127.0425 222.525116,125.86125 222.525116,124.48875 C222.525116,122.68875 221.557616,121.1925 219.611366,120.01125 L218.711366,119.4825 L217.653866,118.83 L216.798866,118.3125 C216.112616,117.94125 215.572616,117.525 215.133866,117.075 C214.728866,116.65875 214.526366,116.13 214.526366,115.5 C214.526366,114.85875 214.785116,114.31875 215.313866,113.86875 C215.853866,113.4075 216.573866,113.17125 217.462616,113.17125 C218.632616,113.17125 219.926366,113.4525 221.332616,113.9925 L221.332616,111.61875 C220.083866,111.23625 218.846366,111.03375 217.597616,111.03375 C215.696366,111.03375 214.222616,111.54 213.277616,112.4175 C212.366366,113.3175 211.882616,114.47625 211.882616,115.7925 C211.882616,117.615 212.917616,119.15625 214.976366,120.37125 L216.101366,121.0125 C216.483866,121.22625 216.855116,121.45125 217.226366,121.665 C218.193866,122.23875 218.981366,122.84625 219.341366,123.31875 C219.690116,123.8025 219.881366,124.30875 219.881366,124.84875 C219.881366,125.2875 219.746366,125.72625 219.487616,126.13125 C219.228866,126.525 218.846366,126.84 218.340116,127.0425 C217.822616,127.2675 217.293866,127.36875 216.708866,127.36875 C215.302616,127.36875 213.648866,126.9075 211.702616,125.985 L211.702616,128.5725 Z M234.149343,129 L234.149343,120.9675 L239.369343,111.54 L236.601843,111.54 L232.945593,118.07625 L232.945593,118.07625 L229.278093,111.54 L226.274343,111.54 L231.494343,120.95625 L231.494343,129 L234.149343,129 Z M245.593569,129 L245.593569,117.615 C245.593569,117.40125 245.593569,117.15375 245.582319,116.92875 L245.964819,117.73875 L251.882319,129 L254.267319,129 L254.267319,111.54 L251.792319,111.54 L251.792319,123.09375 L251.803569,123.645 L251.803569,123.645 L251.567319,123.015 L245.469819,111.54 L243.118569,111.54 L243.118569,129 L245.593569,129 Z M265.891546,129 L265.891546,113.8575 L271.010296,113.8575 L271.010296,111.54 L258.140296,111.54 L258.140296,113.8575 L263.236546,113.8575 L263.236546,129 L265.891546,129 Z M277.527023,129 L277.527023,121.00125 L283.388273,121.00125 L283.388273,129 L286.020773,129 L286.020773,111.54 L283.388273,111.54 L283.388273,118.86375 L277.527023,118.86375 L277.527023,111.54 L274.872023,111.54 L274.872023,129 L277.527023,129 Z M294.2475,126.6825 L294.2475,121.17 L300.3675,121.17 L300.3675,119.0325 L294.2475,119.0325 L294.2475,113.68875 L301.05375,113.68875 L301.05375,111.54 L291.5925,111.54 L291.5925,129 L301.2225,129 L301.2225,126.6825 L294.2475,126.6825 Z M313.521727,129 L313.521727,113.8575 L318.640477,113.8575 L318.640477,111.54 L305.770477,111.54 L305.770477,113.8575 L310.866727,113.8575 L310.866727,129 L313.521727,129 Z M333.144704,129 L333.144704,126.8625 L329.398454,126.8625 L329.398454,113.68875 L333.144704,113.68875 L333.144704,111.54 L323.008454,111.54 L323.008454,113.68875 L326.743454,113.68875 L326.743454,126.8625 L323.008454,126.8625 L323.008454,129 L333.144704,129 Z M349.370181,126.19875 C348.008931,126.98625 346.760181,127.38 345.635181,127.38 C344.825181,127.38 344.082681,127.09875 343.396431,126.55875 C342.710181,125.99625 342.136431,125.1525 341.697681,124.01625 C341.247681,122.8575 341.022681,121.62 341.022681,120.27 C341.022681,118.9425 341.236431,117.71625 341.675181,116.56875 C342.518931,114.34125 343.981431,113.17125 345.635181,113.17125 C346.771431,113.17125 348.020181,113.565 349.370181,114.3525 L349.370181,111.79875 C347.975181,111.2925 346.760181,111.0225 345.725181,111.0225 C344.330181,111.0225 343.058931,111.39375 341.911431,112.1475 C340.752681,112.89 339.863931,113.98125 339.233931,115.4325 C338.603931,116.8725 338.288931,118.48125 338.288931,120.27 C338.288931,122.07 338.603931,123.69 339.245181,125.14125 C339.886431,126.5925 340.775181,127.68375 341.933931,128.415 C343.081431,129.1575 344.352681,129.5175 345.725181,129.5175 C346.760181,129.5175 347.975181,129.2475 349.370181,128.74125 L349.370181,126.19875 Z M376.061134,123.6 L375.836134,124.53375 L375.577384,123.58875 L371.831134,111.54 L369.041134,111.54 L374.441134,129 L377.017384,129 L382.394884,111.54 L379.807384,111.54 L376.061134,123.6 Z M389.507861,126.6825 L389.507861,121.17 L395.627861,121.17 L395.627861,119.0325 L389.507861,119.0325 L389.507861,113.68875 L396.314111,113.68875 L396.314111,111.54 L386.852861,111.54 L386.852861,129 L396.482861,129 L396.482861,126.6825 L389.507861,126.6825 Z M405.564588,126.6825 L405.564588,111.54 L402.909588,111.54 L402.909588,129 L412.539588,129 L412.539588,126.6825 L405.564588,126.6825 Z M423.331315,129.5175 C425.356315,129.5175 426.886315,128.67375 427.955065,126.98625 C428.990065,125.31 429.507565,123.0825 429.507565,120.27 C429.507565,117.46875 428.990065,115.24125 427.955065,113.57625 C426.886315,111.8775 425.356315,111.03375 423.331315,111.03375 C421.328815,111.03375 419.776315,111.8775 418.718815,113.57625 C417.672565,115.24125 417.155065,117.46875 417.155065,120.27 C417.155065,123.0825 417.672565,125.31 418.718815,126.98625 C419.776315,128.67375 421.328815,129.5175 423.331315,129.5175 Z M423.331315,127.36875 C422.375065,127.36875 421.497565,126.73875 420.845065,125.67 C420.181315,124.4775 419.810065,122.66625 419.810065,120.27 C419.810065,117.85125 420.158815,116.0625 420.845065,114.88125 C421.508815,113.745 422.352565,113.17125 423.331315,113.17125 C424.321315,113.17125 425.142565,113.745 425.817565,114.88125 C426.503815,116.0625 426.852565,117.85125 426.852565,120.27 C426.852565,122.66625 426.481315,124.4775 425.817565,125.67 C425.153815,126.73875 424.287565,127.36875 423.331315,127.36875 Z M444.630542,126.19875 C443.269292,126.98625 442.020542,127.38 440.895542,127.38 C440.085542,127.38 439.343042,127.09875 438.656792,126.55875 C437.970542,125.99625 437.396792,125.1525 436.958042,124.01625 C436.508042,122.8575 436.283042,121.62 436.283042,120.27 C436.283042,118.9425 436.496792,117.71625 436.935542,116.56875 C437.779292,114.34125 439.241792,113.17125 440.895542,113.17125 C442.031792,113.17125 443.280542,113.565 444.630542,114.3525 L444.630542,111.79875 C443.235542,111.2925 442.020542,111.0225 440.985542,111.0225 C439.590542,111.0225 438.319292,111.39375 437.171792,112.1475 C436.013042,112.89 435.124292,113.98125 434.494292,115.4325 C433.864292,116.8725 433.549292,118.48125 433.549292,120.27 C433.549292,122.07 433.864292,123.69 434.505542,125.14125 C435.146792,126.5925 436.035542,127.68375 437.194292,128.415 C438.341792,129.1575 439.613042,129.5175 440.985542,129.5175 C442.020542,129.5175 443.235542,129.2475 444.630542,128.74125 L444.630542,126.19875 Z M460.158518,129 L460.158518,126.8625 L456.412268,126.8625 L456.412268,113.68875 L460.158518,113.68875 L460.158518,111.54 L450.022268,111.54 L450.022268,113.68875 L453.757268,113.68875 L453.757268,126.8625 L450.022268,126.8625 L450.022268,129 L460.158518,129 Z M472.288995,129 L472.288995,113.8575 L477.407745,113.8575 L477.407745,111.54 L464.537745,111.54 L464.537745,113.8575 L469.633995,113.8575 L469.633995,129 L472.288995,129 Z M488.176972,129 L488.176972,120.9675 L493.396972,111.54 L490.629472,111.54 L486.973222,118.07625 L486.973222,118.07625 L483.305722,111.54 L480.301972,111.54 L485.521972,120.95625 L485.521972,129 L488.176972,129 Z M524.767926,129.14625 L524.767926,126.7725 C522.157926,125.4675 519.525426,124.12875 516.904176,122.8125 L524.767926,118.90875 L524.767926,116.52375 L512.145426,122.82375 L524.767926,129.14625 Z M540.644653,129.14625 L528.022153,122.82375 L540.644653,116.52375 L540.644653,118.90875 L532.780903,122.8125 L538.028403,125.458333 C538.902153,125.89875 539.774653,126.3375 540.644653,126.7725 L540.644653,129.14625 Z" id="&gt;&gt;FARMINGSYNTHETICVELOCITY&lt;&lt;" fill="#F8E71C" opacity="0.600000024"></path>
                <path d="M28.9289169,76.4 L28.0289169,80.135 L26.9939169,76.355 L12.0089169,28.16 L0.848916931,28.16 L22.4489169,98 L32.7539169,98 L54.2639169,28.16 L43.9139169,28.16 L28.9289169,76.4 Z M82.7158243,88.73 L82.7158243,66.68 L107.195824,66.68 L107.195824,58.13 L82.7158243,58.13 L82.7158243,36.755 L109.940824,36.755 L109.940824,28.16 L72.0958243,28.16 L72.0958243,98 L110.615824,98 L110.615824,88.73 L82.7158243,88.73 Z M146.942732,88.73 L146.942732,28.16 L136.322732,28.16 L136.322732,98 L174.842732,98 L174.842732,88.73 L146.942732,88.73 Z M218.009639,100.07 C226.109639,100.07 232.229639,96.695 236.504639,89.945 C240.644639,83.24 242.714639,74.33 242.714639,63.08 C242.714639,51.875 240.644639,42.965 236.504639,36.305 C232.229639,29.51 226.109639,26.135 218.009639,26.135 C209.999639,26.135 203.789639,29.51 199.559639,36.305 C195.374639,42.965 193.304639,51.875 193.304639,63.08 C193.304639,74.33 195.374639,83.24 199.559639,89.945 C203.789639,96.695 209.999639,100.07 218.009639,100.07 Z M218.009639,91.475 C214.184639,91.475 210.674639,88.955 208.064639,84.68 C205.409639,79.91 203.924639,72.665 203.924639,63.08 C203.924639,53.405 205.319639,46.25 208.064639,41.525 C210.719639,36.98 214.094639,34.685 218.009639,34.685 C221.969639,34.685 225.254639,36.98 227.954639,41.525 C230.699639,46.25 232.094639,53.405 232.094639,63.08 C232.094639,72.665 230.609639,79.91 227.954639,84.68 C225.299639,88.955 221.834639,91.475 218.009639,91.475 Z M286.826546,98 L286.826546,37.43 L307.301546,37.43 L307.301546,28.16 L255.821546,28.16 L255.821546,37.43 L276.206546,37.43 L276.206546,98 L286.826546,98 Z M345.023454,100.07 C353.123454,100.07 359.243454,96.695 363.518454,89.945 C367.658454,83.24 369.728454,74.33 369.728454,63.08 C369.728454,51.875 367.658454,42.965 363.518454,36.305 C359.243454,29.51 353.123454,26.135 345.023454,26.135 C337.013454,26.135 330.803454,29.51 326.573454,36.305 C322.388454,42.965 320.318454,51.875 320.318454,63.08 C320.318454,74.33 322.388454,83.24 326.573454,89.945 C330.803454,96.695 337.013454,100.07 345.023454,100.07 Z M345.023454,91.475 C341.198454,91.475 337.688454,88.955 335.078454,84.68 C332.423454,79.91 330.938454,72.665 330.938454,63.08 C330.938454,53.405 332.333454,46.25 335.078454,41.525 C337.733454,36.98 341.108454,34.685 345.023454,34.685 C348.983454,34.685 352.268454,36.98 354.968454,41.525 C357.713454,46.25 359.108454,53.405 359.108454,63.08 C359.108454,72.665 357.623454,79.91 354.968454,84.68 C352.313454,88.955 348.848454,91.475 345.023454,91.475 Z M398.270361,98 L398.270361,64.925 L424.010361,98 L437.330361,98 L417.059752,72.0325178 C414.230102,68.403391 411.442126,64.8244118 408.755361,61.37 L433.865361,28.16 L422.300361,28.16 L398.270361,59.84 L398.270361,28.16 L387.650361,28.16 L387.650361,98 L398.270361,98 Z M463.757268,88.73 L463.757268,66.68 L488.237268,66.68 L488.237268,58.13 L463.757268,58.13 L463.757268,36.755 L490.982268,36.755 L490.982268,28.16 L453.137268,28.16 L453.137268,98 L491.657268,98 L491.657268,88.73 L463.757268,88.73 Z M523.169176,52.46 L523.169176,98 L513.269176,98 L513.269176,28.16 L522.674176,28.16 L547.064176,74.06 L548.009176,76.58 C548.009176,75.86 547.964176,75.095 547.964176,74.375 L547.964176,28.16 L557.864176,28.16 L557.864176,98 L548.324176,98 L524.654176,52.955 L523.124176,49.715 C523.169176,50.615 523.169176,51.605 523.169176,52.46 Z" id="VELOTOKEN" fill="#50E3C2" opacity="0.273925781"></path>
                <path d="M38.9289169,87.4 L38.0289169,91.135 L36.9939169,87.355 L22.0089169,39.16 L10.8489169,39.16 L32.4489169,109 L42.7539169,109 L64.2639169,39.16 L53.9139169,39.16 L38.9289169,87.4 Z M92.7158243,99.73 L92.7158243,77.68 L117.195824,77.68 L117.195824,69.13 L92.7158243,69.13 L92.7158243,47.755 L119.940824,47.755 L119.940824,39.16 L82.0958243,39.16 L82.0958243,109 L120.615824,109 L120.615824,99.73 L92.7158243,99.73 Z M156.942732,99.73 L156.942732,39.16 L146.322732,39.16 L146.322732,109 L184.842732,109 L184.842732,99.73 L156.942732,99.73 Z M228.009639,111.07 C236.109639,111.07 242.229639,107.695 246.504639,100.945 C250.644639,94.24 252.714639,85.33 252.714639,74.08 C252.714639,62.875 250.644639,53.965 246.504639,47.305 C242.229639,40.51 236.109639,37.135 228.009639,37.135 C219.999639,37.135 213.789639,40.51 209.559639,47.305 C205.374639,53.965 203.304639,62.875 203.304639,74.08 C203.304639,85.33 205.374639,94.24 209.559639,100.945 C213.789639,107.695 219.999639,111.07 228.009639,111.07 Z M228.009639,102.475 C224.184639,102.475 220.674639,99.955 218.064639,95.68 C215.409639,90.91 213.924639,83.665 213.924639,74.08 C213.924639,64.405 215.319639,57.25 218.064639,52.525 C220.719639,47.98 224.094639,45.685 228.009639,45.685 C231.969639,45.685 235.254639,47.98 237.954639,52.525 C240.699639,57.25 242.094639,64.405 242.094639,74.08 C242.094639,83.665 240.609639,90.91 237.954639,95.68 C235.299639,99.955 231.834639,102.475 228.009639,102.475 Z M296.826546,109 L296.826546,48.43 L317.301546,48.43 L317.301546,39.16 L265.821546,39.16 L265.821546,48.43 L286.206546,48.43 L286.206546,109 L296.826546,109 Z M355.023454,111.07 C363.123454,111.07 369.243454,107.695 373.518454,100.945 C377.658454,94.24 379.728454,85.33 379.728454,74.08 C379.728454,62.875 377.658454,53.965 373.518454,47.305 C369.243454,40.51 363.123454,37.135 355.023454,37.135 C347.013454,37.135 340.803454,40.51 336.573454,47.305 C332.388454,53.965 330.318454,62.875 330.318454,74.08 C330.318454,85.33 332.388454,94.24 336.573454,100.945 C340.803454,107.695 347.013454,111.07 355.023454,111.07 Z M355.023454,102.475 C351.198454,102.475 347.688454,99.955 345.078454,95.68 C342.423454,90.91 340.938454,83.665 340.938454,74.08 C340.938454,64.405 342.333454,57.25 345.078454,52.525 C347.733454,47.98 351.108454,45.685 355.023454,45.685 C358.983454,45.685 362.268454,47.98 364.968454,52.525 C367.713454,57.25 369.108454,64.405 369.108454,74.08 C369.108454,83.665 367.623454,90.91 364.968454,95.68 C362.313454,99.955 358.848454,102.475 355.023454,102.475 Z M408.270361,109 L408.270361,75.925 L434.010361,109 L447.330361,109 L427.059752,83.0325178 C424.230102,79.403391 421.442126,75.8244118 418.755361,72.37 L443.865361,39.16 L432.300361,39.16 L408.270361,70.84 L408.270361,39.16 L397.650361,39.16 L397.650361,109 L408.270361,109 Z M473.757268,99.73 L473.757268,77.68 L498.237268,77.68 L498.237268,69.13 L473.757268,69.13 L473.757268,47.755 L500.982268,47.755 L500.982268,39.16 L463.137268,39.16 L463.137268,109 L501.657268,109 L501.657268,99.73 L473.757268,99.73 Z M533.169176,63.46 L533.169176,109 L523.269176,109 L523.269176,39.16 L532.674176,39.16 L557.064176,85.06 L558.009176,87.58 C558.009176,86.86 557.964176,86.095 557.964176,85.375 L557.964176,39.16 L567.864176,39.16 L567.864176,109 L558.324176,109 L534.654176,63.955 L533.124176,60.715 C533.169176,61.615 533.169176,62.605 533.169176,63.46 Z" id="VELOTOKEN" fill="#D0021B" opacity="0.273925781"></path>
                <path d="M31.9289169,70.4 L31.0289169,74.135 L29.9939169,70.355 L15.0089169,22.16 L3.84891693,22.16 L25.4489169,92 L35.7539169,92 L57.2639169,22.16 L46.9139169,22.16 L31.9289169,70.4 Z M85.7158243,82.73 L85.7158243,60.68 L110.195824,60.68 L110.195824,52.13 L85.7158243,52.13 L85.7158243,30.755 L112.940824,30.755 L112.940824,22.16 L75.0958243,22.16 L75.0958243,92 L113.615824,92 L113.615824,82.73 L85.7158243,82.73 Z M149.942732,82.73 L149.942732,22.16 L139.322732,22.16 L139.322732,92 L177.842732,92 L177.842732,82.73 L149.942732,82.73 Z M221.009639,94.07 C229.109639,94.07 235.229639,90.695 239.504639,83.945 C243.644639,77.24 245.714639,68.33 245.714639,57.08 C245.714639,45.875 243.644639,36.965 239.504639,30.305 C235.229639,23.51 229.109639,20.135 221.009639,20.135 C212.999639,20.135 206.789639,23.51 202.559639,30.305 C198.374639,36.965 196.304639,45.875 196.304639,57.08 C196.304639,68.33 198.374639,77.24 202.559639,83.945 C206.789639,90.695 212.999639,94.07 221.009639,94.07 Z M221.009639,85.475 C217.184639,85.475 213.674639,82.955 211.064639,78.68 C208.409639,73.91 206.924639,66.665 206.924639,57.08 C206.924639,47.405 208.319639,40.25 211.064639,35.525 C213.719639,30.98 217.094639,28.685 221.009639,28.685 C224.969639,28.685 228.254639,30.98 230.954639,35.525 C233.699639,40.25 235.094639,47.405 235.094639,57.08 C235.094639,66.665 233.609639,73.91 230.954639,78.68 C228.299639,82.955 224.834639,85.475 221.009639,85.475 Z M289.826546,92 L289.826546,31.43 L310.301546,31.43 L310.301546,22.16 L258.821546,22.16 L258.821546,31.43 L279.206546,31.43 L279.206546,92 L289.826546,92 Z M348.023454,94.07 C356.123454,94.07 362.243454,90.695 366.518454,83.945 C370.658454,77.24 372.728454,68.33 372.728454,57.08 C372.728454,45.875 370.658454,36.965 366.518454,30.305 C362.243454,23.51 356.123454,20.135 348.023454,20.135 C340.013454,20.135 333.803454,23.51 329.573454,30.305 C325.388454,36.965 323.318454,45.875 323.318454,57.08 C323.318454,68.33 325.388454,77.24 329.573454,83.945 C333.803454,90.695 340.013454,94.07 348.023454,94.07 Z M348.023454,85.475 C344.198454,85.475 340.688454,82.955 338.078454,78.68 C335.423454,73.91 333.938454,66.665 333.938454,57.08 C333.938454,47.405 335.333454,40.25 338.078454,35.525 C340.733454,30.98 344.108454,28.685 348.023454,28.685 C351.983454,28.685 355.268454,30.98 357.968454,35.525 C360.713454,40.25 362.108454,47.405 362.108454,57.08 C362.108454,66.665 360.623454,73.91 357.968454,78.68 C355.313454,82.955 351.848454,85.475 348.023454,85.475 Z M401.270361,92 L401.270361,58.925 L427.010361,92 L440.330361,92 L420.059752,66.0325178 C417.230102,62.403391 414.442126,58.8244118 411.755361,55.37 L436.865361,22.16 L425.300361,22.16 L401.270361,53.84 L401.270361,22.16 L390.650361,22.16 L390.650361,92 L401.270361,92 Z M466.757268,82.73 L466.757268,60.68 L491.237268,60.68 L491.237268,52.13 L466.757268,52.13 L466.757268,30.755 L493.982268,30.755 L493.982268,22.16 L456.137268,22.16 L456.137268,92 L494.657268,92 L494.657268,82.73 L466.757268,82.73 Z M526.169176,46.46 L526.169176,92 L516.269176,92 L516.269176,22.16 L525.674176,22.16 L550.064176,68.06 L551.009176,70.58 C551.009176,69.86 550.964176,69.095 550.964176,68.375 L550.964176,22.16 L560.864176,22.16 L560.864176,92 L551.324176,92 L527.654176,46.955 L526.124176,43.715 C526.169176,44.615 526.169176,45.605 526.169176,46.46 Z" id="VELOTOKEN" fill="#FFFFFF"></path>
            </g>
        </g>
    </g>
</svg>