<?xml version="1.0" standalone="no"?>
<!DOCTYPE svg PUBLIC "-//W3C//DTD SVG 20010904//EN"
 "http://www.w3.org/TR/2001/REC-SVG-20010904/DTD/svg10.dtd">
<svg version="1.0" xmlns="http://www.w3.org/2000/svg"
 width="439.000000pt" height="439.000000pt" viewBox="0 0 439.000000 439.000000"
 preserveAspectRatio="xMidYMid meet">
<metadata>
Created by potrace 1.11, written by Peter Selinger 2001-2013
</metadata>
<g transform="translate(0.000000,439.000000) scale(0.100000,-0.100000)"
fill="#000000" stroke="none">
<path d="M2158 4295 c-2 -2 -52 -5 -113 -9 -60 -3 -126 -8 -145 -11 -19 -3
-66 -10 -105 -16 -98 -16 -242 -54 -360 -95 -207 -73 -390 -169 -580 -306
-178 -128 -403 -369 -530 -568 -47 -72 -165 -300 -165 -317 0 -4 -13 -40 -29
-79 -48 -119 -90 -300 -116 -499 -12 -98 -7 -358 10 -470 4 -22 9 -53 11 -70
12 -78 69 -287 101 -369 52 -134 132 -290 207 -404 37 -56 72 -107 79 -114 7
-7 30 -36 52 -63 60 -76 181 -199 270 -274 72 -60 249 -191 259 -191 3 0 37
-20 78 -43 223 -132 548 -240 823 -273 224 -26 481 -19 710 21 116 19 358 95
474 146 194 87 409 219 521 319 19 17 52 46 74 63 31 26 92 86 172 171 93 99
228 301 305 456 151 306 219 578 224 900 8 610 -245 1154 -729 1565 -67 57
-224 166 -306 214 -184 107 -479 223 -647 256 -10 1 -36 7 -58 13 -22 6 -67
13 -100 17 -32 4 -68 9 -80 11 -11 3 -65 7 -120 10 -55 3 -119 6 -142 8 -23 2
-44 2 -45 1z m241 -149 c72 -16 184 -53 291 -96 68 -26 250 -120 268 -138 8
-6 23 -17 35 -23 35 -18 197 -142 197 -151 0 -4 4 -8 10 -8 17 0 201 -192 263
-275 4 -5 16 -21 27 -34 11 -13 20 -27 20 -31 0 -4 9 -17 20 -30 11 -13 20
-29 20 -36 0 -7 4 -14 9 -16 15 -5 147 -254 156 -293 1 -5 7 -23 14 -40 18
-44 39 -107 43 -130 2 -11 6 -22 10 -25 6 -5 12 -34 27 -130 11 -68 3 -358 -9
-370 -6 -6 -32 -99 -33 -117 0 -7 -4 -13 -9 -13 -4 0 -7 -3 -7 -7 4 -18 -14
-73 -23 -73 -6 0 -8 -7 -4 -15 3 -8 1 -15 -4 -15 -5 0 -12 -10 -16 -22 -3 -12
-24 -51 -46 -86 -39 -65 -49 -78 -80 -113 -10 -10 -16 -19 -13 -19 2 0 -24
-28 -58 -63 -68 -68 -179 -157 -196 -157 -6 0 -11 -4 -11 -8 0 -24 -260 -130
-365 -149 -95 -17 -147 -21 -255 -18 -131 4 -176 10 -196 26 -9 8 -17 -5 -30
-48 -9 -32 -26 -84 -36 -115 -11 -32 -17 -62 -14 -67 4 -5 2 -11 -4 -13 -6 -2
-12 -12 -14 -23 -2 -11 -10 -40 -17 -65 -16 -56 -15 -52 -22 -70 -3 -8 -13
-42 -22 -75 -9 -33 -19 -67 -22 -75 -7 -17 -10 -27 -17 -55 -3 -11 -18 -63
-35 -115 -17 -52 -31 -99 -31 -103 0 -15 98 -105 130 -118 16 -8 30 -17 30
-21 0 -3 17 -12 38 -19 20 -6 42 -15 47 -19 9 -7 106 -35 160 -46 58 -12 120
-17 206 -18 88 -1 93 -2 66 -14 -54 -22 -218 -60 -352 -81 -99 -15 -166 -19
-280 -16 -82 2 -161 6 -175 9 -14 3 -45 9 -70 12 -68 9 -205 57 -295 104 -125
64 -170 90 -173 100 -2 6 -8 10 -13 10 -8 0 -101 63 -125 85 -6 5 -28 24 -50
40 -111 87 -282 280 -372 420 -96 149 -209 388 -228 485 -3 14 -8 34 -11 45
-4 11 -8 22 -8 25 -1 3 -5 16 -8 30 -4 14 -9 36 -11 50 -3 14 -5 25 -6 25 -3
0 -10 43 -12 82 -2 24 -5 43 -8 43 -13 0 -20 429 -8 480 23 92 32 136 30 143
-1 4 2 7 8 7 6 0 9 3 8 8 -5 17 46 96 95 145 67 69 176 129 237 132 8 0 20 3
25 6 27 14 228 -10 245 -30 3 -3 27 -17 53 -30 90 -46 159 -130 234 -288 21
-44 39 -84 40 -89 4 -15 45 -138 53 -159 5 -11 11 -29 13 -40 3 -11 19 -67 36
-125 16 -57 27 -108 25 -112 -3 -4 0 -8 5 -8 6 0 11 -12 11 -27 0 -14 3 -24 6
-20 5 5 49 143 59 187 2 8 4 17 6 20 1 3 3 10 4 15 1 6 5 17 8 25 5 12 21 67
33 113 1 4 3 9 4 12 1 3 4 10 5 15 1 6 3 11 5 13 1 1 4 15 6 32 3 16 11 33 17
37 7 4 9 8 6 8 -4 0 4 37 18 83 13 45 26 89 28 97 2 8 9 29 15 45 6 17 13 37
15 45 2 8 9 35 16 60 7 25 14 52 17 60 2 8 4 23 5 33 1 9 4 17 8 17 6 0 32
104 29 116 -1 4 3 10 9 13 5 4 13 22 16 41 3 19 8 36 10 39 3 2 1 9 -4 15 -5
6 -12 29 -15 50 -4 22 -11 45 -17 52 -5 6 -9 16 -8 20 1 5 -1 16 -4 24 -17 40
-30 76 -33 88 -3 17 -105 226 -113 232 -3 3 -20 25 -36 50 -163 244 -402 376
-663 366 -55 -2 -105 -7 -111 -10 -13 -9 -51 -16 -51 -11 0 13 335 176 390
190 3 0 34 11 70 22 101 34 256 70 355 83 49 6 91 13 94 15 10 11 324 -5 390
-19z"/>
<path d="M2371 3440 c-5 -14 -14 -41 -20 -60 -30 -108 -74 -254 -127 -425 -15
-49 -28 -92 -29 -95 -11 -48 -18 -77 -23 -85 -4 -5 -7 -14 -9 -20 -7 -36 -12
-53 -21 -75 -5 -14 -10 -28 -11 -32 0 -5 -1 -9 -2 -10 0 -2 -2 -10 -4 -18 -2
-8 -13 -46 -25 -85 -12 -38 -23 -77 -25 -85 -2 -8 -4 -15 -5 -15 -1 0 -3 -7
-5 -16 -1 -9 -19 -69 -40 -135 -20 -65 -38 -123 -39 -129 -8 -31 -29 -102 -47
-157 -11 -35 -22 -73 -25 -85 -2 -12 -9 -34 -14 -48 -5 -14 -12 -40 -15 -58
-4 -17 -11 -37 -17 -44 -6 -7 -8 -13 -5 -13 3 0 2 -13 -3 -30 -5 -18 -5 -30 1
-30 5 0 9 -10 9 -23 0 -13 3 -27 7 -31 4 -4 9 -19 11 -34 2 -14 7 -31 12 -37
5 -6 11 -22 14 -35 3 -14 10 -41 16 -60 6 -19 13 -42 15 -50 2 -8 8 -26 13
-40 5 -14 11 -29 12 -35 1 -5 4 -14 6 -20 1 -5 24 -77 49 -160 25 -82 60 -195
77 -250 17 -55 36 -116 44 -136 7 -20 10 -40 6 -44 -4 -5 -2 -5 4 -2 7 4 14
17 17 29 3 13 14 52 25 88 11 36 48 157 82 270 33 113 64 212 67 220 3 8 7 20
8 27 4 17 155 516 162 533 8 21 11 31 18 64 3 16 12 44 20 62 8 19 12 34 9 34
-2 0 2 12 9 28 8 15 12 32 10 39 -2 6 1 14 6 18 6 3 11 15 11 25 0 10 5 31 12
47 6 15 12 33 13 38 6 23 57 192 110 365 31 102 58 192 60 200 2 8 11 36 19
62 8 25 12 49 9 52 -4 3 -1 6 6 6 8 0 11 7 7 15 -3 8 -2 15 3 15 4 0 8 6 8 13
0 12 16 66 91 312 22 72 42 139 43 149 4 19 -6 19 -298 20 l-303 1 -9 -25z"/>
</g>
</svg>
