<?xml version="1.0" encoding="UTF-8"?>
<svg width="160px" height="160px" viewBox="0 0 160 160" version="1.1" xmlns="http://www.w3.org/2000/svg" xmlns:xlink="http://www.w3.org/1999/xlink">
    <!-- Generator: Sketch 59.1 (86144) - https://sketch.com -->
    <title>logo-vector-red-on-yellow</title>
    <desc>Created with Sketch.</desc>
    <g id="logo-vector-red-on-yellow" stroke="none" stroke-width="1" fill="none" fill-rule="evenodd">
        <circle id="Oval" fill="#F8E71C" cx="80" cy="80" r="75.9375"></circle>
        <path d="M80,2.21709007 C122.958315,2.21709007 157.78291,37.0416851 157.78291,80 C157.78291,122.958315 122.958315,157.78291 80,157.78291 C37.0416851,157.78291 2.21709007,122.958315 2.21709007,80 C2.21709007,37.0416851 37.0416851,2.21709007 80,2.21709007 Z M80,7.75981524 C66.2748767,7.75981524 53.4437432,11.5874408 42.5158073,18.2334843 L42.6503497,18.2102927 L42.6503497,18.2102927 L43.1346442,18.1308353 C59.3193437,15.6079952 71.1007955,26.6750713 78.4789995,51.3320636 L78.4789995,51.3320636 L66.213669,92.8731108 C61.4371439,71.7962713 51.7719697,54.0247633 35.7764373,59.3122463 C19.7809048,64.5997293 18.192867,100.207493 43.1346442,130.969777 C59.6248942,148.846029 81.3473049,153.813317 108.301876,145.871641 L107.937341,145.897194 C94.7839436,146.81062 85.8418362,143.905079 81.1110186,137.18057 L81.1110186,137.18057 L90.2848154,107.16576 C99.3449081,109.662264 113.23037,113.939088 127.253176,97.7547633 C137.872402,86.7191109 146.600492,55.5303561 129.145497,32.3325635 C119.955876,20.1195035 111.381827,14.3363154 102.214447,11.241678 C99.9901063,10.5215991 97.7177714,9.90823713 95.4040888,9.40572705 C93.6304967,9.03340022 91.826911,8.72129934 89.984812,8.44668019 C86.7214686,7.99304084 83.3879707,7.75981524 80,7.75981524 Z M108.955119,33.4411085 L78.8644589,134.281694 L67.4364896,98.4757506 L86.6512702,33.4411085 L108.955119,33.4411085 Z" id="Combined-Shape" fill="#D0021B" fill-rule="nonzero"></path>
    </g>
</svg>